<?xml version="1.0" encoding="UTF-8"?>
<svg version="1.1" viewBox="0 0 2048 2048" width="512" height="512" xmlns="http://www.w3.org/2000/svg">
<path transform="translate(795,47)" d="m0 0h25l43 3 34 4 32 6 30 7 28 8 31 11 24 10 24 11 27 14 15 9 19 12 14 10 12 9 10 8 16 13 17 16 15 15 7 8 11 13 15 20 12 18 9 15 14 27 9 21 8 22 8 29 4 20 4 30 2 33v12l-1 23-3 30-16 111-2 8h8l23 4 20 6 16 7 17 11 11 9 9 9 11 15 9 16 7 19 4 18 1 8v28l-2 15-5 20-8 20-8 15-9 13-12 14-11 11-18 13-16 9-16 7-19 6-20 4-24 3-11 25-10 21-13 23-1 2 46 1 17 3 13 5 14 8 10 8h2l9-11 27-27 8-7 16-13 19-14 17-11 17-10 23-12 23-10 24-9 28-8 23-5 32-5 24-2h42l32 3 31 5 36 9 29 10 30 13 27 14 22 14 17 12 14 11 13 11 12 11 21 21 9 11 11 13 13 18 11 17 10 17 14 27 10 24 7 19 8 28 7 34 5 34v60l-6 41-7 33-7 24-7 20-11 26-13 26-14 23-11 16-10 13-8 5-12 3-9-1-11-5-11 12-15 15-8 7-13 11-6 4 1 6 2 7v9l-3 9-4 6-9 8-23 13-26 13-27 11-28 9-23 6-27 5-36 4-19 1h-26l1 9v222l-2 10-5 12-8 10-9 8-11 5-7 2-8 1-111 1h-1269l-145-1-13-3-11-6-10-9-7-10-6-14v-243l7-49 7-32 8-25 10-25 8-16 9-16 11-16 11-14 12-13 14-14 14-11 12-9 15-10 24-13 17-8 29-11 49-17 8-3h3l1-310 4-17 8-17 10-14 8-8 14-10 15-7 14-4 7-1 48-1-12-22-9-17-13-30v-3l-26-2-23-5-18-6-21-10-18-12-14-12-8-8-11-14-9-14-8-16-6-15-5-19-2-13v-32l5-25 6-16 8-16 8-11 9-11 7-7 13-10 15-9 16-7 18-5 16-3 13-2-6-39-13-82-3-24-2-39 1-25 3-26 5-24 7-24 8-20 8-17 12-19 8-11 9-11 11-12 7-7 11-9 15-11 16-10 20-11 24-10 17-6 5-5 7-13 12-19 10-13 9-11 14-15 8-7 13-11 18-13 25-15 27-13 29-11 28-8 28-6 26-4 17-2z" fill="#020202"/>
<path transform="translate(536,576)" d="m0 0h548l22 1 21 3 16 5 11 6 16 12 8 8 14 19 10 15 12 21 10 18 3 5v148l-4 29-6 25-12 36-11 26-11 22-12 21-15 24-2 4-278 1-17 1-8 3-3 1v2l-6 5-4 8v16l3 9 7 8 8 4 4 1 408 1 10 4 10 8 1 7-9 17-10 19-12 28-11 33-6 24-5 27-3 24-1 14v45l2 24 2 14v7l-5 13-16 38-16 39-40 96-11 26-4 14v7l4 11 5 6 8 5 9 2 12 1 108 5 4 2v131l-1 1h-964l-1-1v-660l2-10 6-10 10-8 8-3 379-1 9-4 7-6 5-9 1-4v-12l-3-10h-2l-7-8-11-4-22-1-240-1-6-7-8-13-12-20-14-27-13-30-12-36-5-22-3-19-1-12-1-145 3-9 11-20 2-5 6-9 9-15 5-8h2l1-4h2v-3h2l2-4 4-6h2l2-4 7-6 4-4 6-4h2l1-3 10-4 16-5 21-3z" fill="#786C76"/>
<path transform="translate(1629,965)" d="m0 0h20l28 2 27 4 30 7 33 11 25 11 14 7 10 6 9 5 16 11 9 6v2l4 1v2l4 2 6 4 5 5 5 4 22 22 7 8 2 4h2l2 5 3 1 1 4h2l2 5h2l7 11 1 3h2l5 9 7 11 5 9 8 16 9 21 7 20 6 20 6 27 4 31 1 13v36l-3 29-3 20-7 29-10 30-11 25-12 23-12 19-13 19-4 10v11l4 11 6 8-11 12-15 15-8 7-13 11-6 4-2 3-4-6-6-5-7-3-5-1h-7l-11 4-21 12-16 8-17 8-28 10-21 6-22 5-27 4-13 1h-46l-29-3-31-6-27-8-22-8-20-9-21-11-11-7-9-5-13-9-10-4-25-2-171-8-10-1 25-60 17-41 18-43 17-41 2-7v-10l-4-31-1-11v-48l3-27 5-26 6-23 9-26 8-18 8-17 13-22 13-19 6-9h2l2-5 4-4 2-4 10-10 12-13 11-9 5-5 4-2 1-3 4-1v-2l5-2v-2l13-9h2l1-3 12-7h2l1-3 14-7 19-10 20-9 25-9 25-7 27-5 25-3z" fill="#E4E2E5"/>
<path transform="translate(536,576)" d="m0 0h548l22 1 21 3 16 5 11 6 16 12 8 8 14 19 10 15 12 21 10 18 3 5v148l-4 29-6 25-12 36-11 26-11 22-12 21-15 24-2 4-278 1-17 1-8 3-3 1v2l-6 5-4 8-2 10-2 1-77-1-5-15v-2h-2l-7-8-11-4-22-1-240-1-6-7-8-13-12-20-14-27-13-30-12-36-5-22-3-19-1-12-1-145 3-9 11-20 2-5 6-9 9-15 5-8h2l1-4h2v-3h2l2-4 4-6h2l2-4 7-6 4-4 6-4h2l1-3 10-4 16-5 21-3z" fill="#FDD0A3"/>
<path transform="translate(779,108)" d="m0 0h61l31 3 37 6 31 7 34 10 27 10 26 11 36 18 25 15 19 13 17 13 11 9 12 11 10 9 10 10 7 8 12 14 14 19 12 19 14 27 7 16 11 33 6 28 3 19 2 25v31l-4 40-9 60h-3l-11-14-9-10v-2h-2l-7-8-14-11-9-6-12-7-18-7-15-4-27-4-28-2-34-1h-488l-40 1-31 3-24 5-19 7-15 8-13 10-10 9-13 13-10 13-7 10-2-1-7-41-5-32-3-28-1-19v-15l2-24 4-23 7-24 6-16 11-21 8-11 8-10 18-18 19-14 16-9 14-7 24-9 21-7 10-6 7-11 12-24 12-18 8-10 11-12 8-8 14-11 15-11 25-14 23-10 27-9 36-8 25-4z" fill="#544E55"/>
<path transform="translate(781,1201)" d="m0 0h61v24l2 11 3 6 1 3 4 2v2l5 2 18 7 19 8 16 9 19 14 11 9v2l5 2 11 3h7l11-4 19-11 3-1 4 8 6 10 7 12 10 18 2 3v3l-18 10-4 3h-2v2l-5 4-5 10-1 5 1 13 3 19 1 9v26l-2 17-3 17v7l4 11 7 8 22 13 2 1-2 6-13 23-14 24-4-1-22-12-7-2h-10l-9 4-4 3h-2v2l-4 3h-2l-2 4-5 2v2l-17 11-12 7-21 9-16 6-5 3h-2l-2 4h-2l-1 4h-2l-2 7-1 11v22h-62l-1-33-5-10-8-7-19-7-16-7-16-8-10-7-14-11-7-6-2-1v-2l-5-2-9-3h-10l-12 5-17 10-4-1-6-12-9-15-12-21-1-4 13-7 11-7 7-8 4-10v-9l-4-25-1-9v-23l3-24 2-10v-11l-4-10-6-7-2-1v-2l-4-1-11-6-8-5 2-5 6-11 7-12 2-5h2l1-5 10-15 5 2 20 11 8 2h9l10-3v-2l4-1v-2l9-7 11-9 11-7 18-10 15-6 18-7 5-2v-2l6-6 3-8 1-6z" fill="#E4E2E5"/>
<path transform="translate(599,653)" d="m0 0h89l16 4 12 5 10 6 10 7 7 8 5 5 2 5h2l7 12 6 16 4 15 27-4h29l22 3 7 2 2-13 5-15 9-16 2-3h2l2-4 5-5 5-6 7-5h2v-2l11-6 14-6 13-3h77l18 1 14 4 16 8 10 7 12 12 4 5v2h2l9 16 6 17 2 9 1 9v79l-3 17-6 18-9 15-12 14-14 11-17 9-13 4-12 2h-79l-20-4-18-8-11-8-4-4-6-5-7-8-7-10-7-15-4-14-2-20v-16l-5-1-16-4-8-1h-27l-16 3-10 3h-3v22l-2 18-5 15-8 15-7 9h-2l-2 4-7 7-4 1v2l-14 9-15 6-11 3-7 1h-80l-16-3-14-5-15-9-11-9-7-7-10-15-7-15-4-15-1-7v-89l4-20 7-16 7-11 11-12 5-4 3-3h2v-2l13-8 15-6z" fill="#030203"/>
<path transform="translate(243,1836)" d="m0 0h1136l1 1v41l-2 17-5 12-7 11-4 5-12 9-11 5-13 3-67 1-965-1-12-3-12-6-12-10-7-10-5-10-3-12z" fill="#544E55"/>
<path transform="translate(771,1141)" d="m0 0h25l66 1 10 3 10 6 6 5 7 10 4 8 3 16v13l19 10 17 9 16 11 7 5 5-1 9-6 10-4 5-1h18l12 4 11 7 9 10 13 21 10 18 14 24 8 16 4 11v18l-5 14-7 9-8 8-16 10 2 27v18l-2 24 10 6 12 9 8 11 5 11 1 5v16l-3 10-8 16-14 24-12 21-10 17-8 10-11 8-9 4-10 2h-12l-13-4-15-8-5 1-14 10-15 9-21 11-7 3-1 21-3 11-4 8-7 9-11 8-10 4-14 2h-84l-12-2-12-5-11-9-6-8-5-13-1-5-1-20-5-3-20-10-17-10-17-12-5 1-10 6-11 4-6 1h-13l-13-4-8-4-10-9-11-17-14-25-13-22-10-18-4-12v-17l4-13 7-11 10-9 13-8 2-2-1-9-1-20v-12l1-17 1-10-16-10-9-8-7-11-4-13v-16l4-13 8-15 10-17 14-24 13-22 8-9 10-7 9-4 5-1h18l12 4 13 7 4 1 20-14 18-10 16-8 5-2 1-19 4-16 7-10 9-9 10-6 8-2zm10 60-1 26-2 9-2 5-6 6v2l-5 2-18 7-17 7-23 13-17 14-7 5v2l-4 1v2l-10 3h-9l-10-3-21-12-4 2-7 12-2 2v4l-3 1-3 7-10 17-3 6v2l8 5 11 6 4 1v2l7 6 4 8 1 4v11l-4 24-1 10v23l4 28 1 6v9l-5 12-10 9-18 10-2 1 1 4 14 25 9 15 4 8 4 1 21-12 8-3h10l11 4 3 1v2l6 4 10 9 10 7 8 6 28 13 20 7 8 6 5 7 2 5 1 33h62v-22l1-11 2-7h2l1-4 4-2v-2l20-8 17-7 16-8 20-13v-2l5-2 2-4 6-3v-2l12-6 3-1h10l11 4 18 10 4 1 28-49 1-4-16-9-10-7-5-6-4-11 1-14 3-16 1-11v-26l-3-23-2-11v-7l3-10 6-8 2-1v-2l5-2 17-10 2-1-1-5-6-10-5-9-7-12-9-15-1-3-4 2-22 12-7 2h-7l-11-3-5-2v-2l-11-9-16-12-17-10-18-8-19-7-5-3h-2l-2-4h-2l-2-4-3-8-1-8v-24z" fill="#020202"/>
<path transform="translate(265,1477)" d="m0 0h4l1 141v72l-1 86-37 1-13 4-6 3h-2v2h-3v2l-5 3-7 8-7 11-5 16-1 27 1 41 4 20 6 16 4 8v2h-137l-1-1v-183l1-30 3-31 5-30 6-24 9-26 9-20 6-9 1-3h2v-3h2v-3h2v-3h2l2-5 6-7 2-3h2l2-4 9-10 6-5h2l1-3 5-2v-2l5-2v-2l5-3h2v-2l7-5 8-4 5-3 27-13 27-10z" fill="#97E4FD"/>
<path transform="translate(779,108)" d="m0 0h61l31 3 37 6 31 7 34 10 27 10 26 11 36 18 25 15 19 13 17 13 11 9 12 11 10 9 10 10 7 8 12 14 14 19 12 19 14 27 7 16 11 33 6 28 3 19 2 25v31l-4 40-9 60h-3l-11-14-9-10v-2h-2l-7-8-14-11-9-6-12-7-18-7-15-4-27-4-28-2-34-1h-488l-40 1-11 1h-11v-1l18-2 30-1 194-1h153l171 1 27 1 21 2h8l7 2 2-4-2-31-3-26-6-30-8-28-3-7-4-10-10-23-9-17-11-18-7-10-5-7v-2h-2l-3-5-5-6v-2h-2l-4-5v-2h-2l-2-5-3-1-7-8-21-21-4-3v-2l-5-2-7-7-13-10-8-6-17-12-14-9-15-9-16-9-8-4-21-10-11-5-8-4-9-3-17-6-18-6-16-4-6-2-27-7-29-5-6-1-10-2-8-1h-13l-6-1 4-2 35-7 24-3z" fill="#444044"/>
<path transform="translate(799,1308)" d="m0 0h24l14 2 17 5 17 8 14 9v2l4 1 5 5 5 4 7 8 7 10 7 11 8 18 5 21 1 7v22l-2 14-6 20-8 17h-2l-2 5-4 7h-2l-2 5-15 15-14 10-16 9-21 7-18 3h-21l-19-3-18-6-16-8-13-9-13-12-5-5-5-7v-2h-2l-9-15-7-17-4-15-2-14v-18l3-20 6-18 8-16 8-12h2l2-4 7-8 5-4 5-5 7-5h2v-2l9-5 14-7 15-5z" fill="#020202"/>
<path transform="translate(1353,1646)" d="m0 0 46 2 9 1 4 2v2l5 1 1 3 5 2 29 16 25 12 23 9 27 9 24 6 9 3 1 9 1 30v186l-1 1h-137l1-5 6-11 5-18 2-10v-71l-4-13-5-9-8-10-4-3v-2l-5-2-14-7-9-2-36-1z" fill="#97E4FD"/>
<path transform="translate(1789,1019)" d="m0 0 6 2 6 3v2l6 2 1 4 7 2 5 5 7 5 10 4 11 6 15 12v2l4 2 8 8 2 1v2l4 2 10 11 6 7v2h2l7 9 7 11 6 10 8 14 9 16 5 10v2h2l9 19 4 10 6 18 4 8v4h2l3 16 3 7 3 19 2 7h2l-1-5h2l1-13h1l3 30v36l-3 29-3 20-7 29-10 30-11 25-12 23-12 19-13 19-4 10v11l4 11 6 8-11 12-15 15-8 7-13 11-6 4-2 3-4-6-6-5-7-3-5-1h-7l-11 4-14 8h-6v2l-8 3-4 3-7 3-15 7-15 6-4 1h-9v-2h2l1-4 6-4 4-1v-2l11-6 7-5 5-5 12-9 5-5 7-5 5-5 5-6 8-7 7-7 2-4h2l2-5 3-5 2-1 1-3h2v-2h2l2-5 9-13 10-15 11-18 3-7h2l1-6 12-27 5-15 5-12 4-14 4-16 3-13 3-17 3-19 2-36v-27l-2-8-2-22-5-25-5-15-3-10-9-29-3-6-5-14-6-13-3-6v-2h-2l-6-12-7-12-6-8-3-5-1-3h-2l-4-6-2-5-3-1-10-13-4-4v-2l-3-1-6-8-19-19-2-5h-2v-2l-4-2v-2l-2-1-5-4z" fill="#E0D1C7"/>
<path transform="translate(1092,577)" d="m0 0h14l21 3 16 5 11 6 16 12 8 8 14 19 10 15 12 21 10 18 3 5v148l-4 29-6 25-12 36-11 26-11 22-12 21-15 24-2 4h-180v-1l142-1 3-10 3-9 7-20 12-35 16-52 6-23 6-28 4-25 2-21v-47l-2-28-3-16-4-21-8-24-8-18-10-18-12-16-12-13-8-8-12-9v-2z" fill="#FDBD86"/>
<path transform="translate(1672,1186)" d="m0 0h17l9 4v2l4 2 2 4h2l4 8 1 4v9l-4 14-14 34-12 31-11 27-37 93-12 29-4 6-5 5-6 4-6 2h-13l-10-4-4-3v-2l-3-1-4-6-3-9v-9l4-13 66-165 17-43 6-12 5-4 4-4z" fill="#040404"/>
<path transform="translate(607,712)" d="m0 0h71l9 3 11 7 5 6 4 10 1 7v74l-2 11-7 11-4 2v2l-11 5-4 1h-73l-11-4-8-7-6-10-1-7h-2v-82l1-4h2l1-5 1-3h2l2-5 9-7 7-3h3z" fill="#97E4FD"/>
<path transform="translate(942,712)" d="m0 0h71v2l8 1 9 5 7 8 5 12v85l-4 9-6 9-10 6-7 1v2h-71l-13-4-1-3-5-2-6-7-4-10-1-5v-75l2-11 7-12 4-3h2v-2l9-4h4z" fill="#97E4FD"/>
<path transform="translate(1799,1196)" d="m0 0h13l10 4 6 5 2 5h2l24 40 14 23 17 28 6 12 2 11-3 12-16 28-6 9-6 12-13 22-15 26-7 10-8 7-11 4h-9l-11-4-9-8-4-8-2-11 2-10 10-19 9-15 14-24 12-20 6-12v-4l-3-1-9-16-10-16-16-27-9-15-4-8-2-7 1-11 5-10 5-5 5-4z" fill="#040404"/>
<path transform="translate(1471,1196)" d="m0 0h13l10 4 6 5 6 10 2 6v10l-5 12-8 14-12 20-2 1-3 7-14 23-8 13-1 3 17 29v3h2l13 23 14 24 6 12 1 4v9l-4 11h-2l-2 5-4 2v2l-10 5-4 1h-8l-10-3-5-4-6-5-8-13-16-28-15-26-13-22-10-18-2-6v-12l4-11 11-18 14-23 15-25h2l1-5 16-26 5-6h3l1-3z" fill="#040304"/>
<path transform="translate(1483,1690)" d="m0 0 20 7 24 8 24 6 9 3 1 9 1 30v186l-1 1h-136v-1l54-1 1-1 9-1 4-4 1-10 1-40v-91l-1-92-3-1v-3l-7-2z" fill="#77E1FE"/>
<path transform="translate(860,1084)" d="m0 0h408l10 4 10 8 1 7-9 17-10 19-12 28-11 33-6 24-5 27-3 24-1 14v45l2 24 2 14v7l-5 13-16 38-5 12-1-3v-5l-2-7v-16l1-44v-222l-1-32-2-18-1-5h-2v-2l-17-1-315-1-10-1z" fill="#696069"/>
<path transform="translate(1164,1636)" d="m0 0 43 2 83 4 4 2v131l-1 1h-964v-1h879l-1-10 1-31v-94l-28-1-16-2z" fill="#6A616A"/>
<path transform="translate(799,1368)" d="m0 0h23l13 4 11 6 10 8 8 10 8 16 3 14v9l-4 17-7 13-9 11-12 9-11 5-11 3-12 1-16-3-12-5-11-8-10-10-7-12-4-12-1-5v-17l5-17 8-13 12-12 10-6 8-4z" fill="#776B75"/>
<path transform="translate(329,712)" d="m0 0h5l1 1 1 115 2 28 5 31-1 4-4-1v-2l-11-1-8-3-13-6v-2l-6-2-2-1v-2h-3l-1-2-3-1-4-5-6-5-8-10-7-11-4-9-2-5v-3h-2l-1-11h-2l-1-4v-23l1-11h2v-7h2l1-6 6-11 7-10 11-9 7-4h2v-2l10-4 10-1v-2z" fill="#F2A76C"/>
<path transform="translate(1288,712)" d="m0 0h7l18 4 6 2v2l8 1 1 2 8 3 4 4 4 2 5 6 4 3 4 8 1 3h2l4 11 3 12 1 8v13l-2 14-4 16h-2l-2 8-3 6-2 1-1 4h-2l-1 4-5 5-3 5-13 10-1 2h-3v2h-3v2l-7 3-9 4h-2v2l-12 2v2l-7 2h-5l1-9 4-29 2-25 1-112z" fill="#F7A96C"/>
<path transform="translate(243,1836)" d="m0 0h1136l1 1v41l-2 17-5 12-7 11-4 5-12 9-11 5-13 3-67 1-965-1v-1l966-1 4-1h5v-2l6-3 5-7h2v-5l3-4 1-4h2l1-7 2-10 2-24 1-34h-1050v52h-1z" fill="#444044"/>
<path transform="translate(1629,965)" d="m0 0h20l28 2 27 4 11 3 2 4 4 2-3 1h-10l-7-2-38-4-26-1-29 1-31 4-11 3-11 2-5 2-10 2-16 5-12 5-10 4h-3v2l-8 3-15 7-5 2h-3l-1 2-2-1v2l-5 2-4 1-1 2h-2l-1 3-2-4 2-2 2-1 4-5 22-12 23-11 24-9 23-7 28-6 21-3z" fill="#F9FAFA"/>
<path transform="translate(1164,1636)" d="m0 0 43 2 83 4 4 2v131l-1 1h-964v-1l941-1 9-1h11l1-2 1-127h-14l-61-3-17-1-32-2z" fill="#444044"/>
<path transform="translate(860,1084)" d="m0 0h408l10 4 10 8 1 7-9 17-2 1 2-8h2l2-6 2-3v-6l-8-7-7-2v-2l-6 2-13-1h-28l-16-1-338-1-10-1z" fill="#444044"/>
<path transform="translate(1508,1230)" d="m0 0 2 4v4l-3 3-1 5-3 7-4 4-2 5-4 5-1 4-2 3h-2l-2 7-4 5-3 8-2 2-1 4h-2l-1 5h-2l-1 2-1 3-2 5-2 1v10l6 15 1 5h2l3 7 2 1 3 7 2 2 6 11 2 5v2l3 1 8 16-1 4 1 3h-2l-14-25-13-22v-2h-2l-6-12-12-20 2-4 9-16 10-16 4-6 2-5h2l2-5 13-22 6-11z" fill="#F8F8F7"/>
<path transform="translate(634,1480)" d="m0 0 4 2 1 4-2 10-6 9-5 5-13 10-2 3 1 7 3 7 4 8 8 10v2l4 1h8l5-2h6v3l-21 12-4-1-6-12-9-15-12-21-1-4 13-7 11-7 7-8z" fill="#FAFAFA"/>
<path transform="translate(1709,1202)" d="m0 0 2 3 2 4 1 7h1l1 9-2 9-6 17-4 9-5 13-7 17-7 16-8 17-6 14-3 1v-2h-2l1-6 36-90 6-16 1-5v-9z" fill="#FAF9F9"/>
<path transform="translate(1652,1380)" d="m0 0 1 2-2 7-2 3-3 9-3 10-5 11-7 20-7 14h-2v2h-2l-1 3-10 7-15 3-9-1-10-4-4-5-4-7 2-1 4 2 4 4 10 4h13l10-4 5-5 4-5 10-23 14-36 1-2h3l1-7z" fill="#F9F8F8"/>
<path transform="translate(1252,1495)" d="m0 0h2l1 2 1 4-2 4-2 5-2 4-2 9-6 15-5 13-6 14 1 10 1 3-16 1 25-60z" fill="#FAF9F9"/>
<path transform="translate(627,1290)" d="m0 0 5 2 10 6v4l-17 1-1 6-5 3-4 4 1 5-3 3-2 6h-2v9l4 5 4 8-2 1-10-5-8-5 2-5 6-11 7-12 2-5h2l1-5 6-9z" fill="#F8F7F7"/>
<path transform="translate(395,688)" d="m0 0h1l1 150 3 26 5 23-1 4-6-25-4-25-1-10v-137z" fill="#635A62"/>
<path transform="translate(699,1493)" d="m0 0 1 2h5v2l5 2v2h2l5 8 13 13 12 9 3 2 1 5-3 3-10-5v-2l-8-4v-2l-6-2-9-11-7-11-2-4-2-1z" fill="#F9F9F9"/>
<path transform="translate(1164,1636)" d="m0 0 43 2 83 4 4 2v131h-24v-1l9-1h11l1-2 1-127h-14l-61-3-17-1-32-2z" fill="#4B464C"/>
<path transform="translate(684,1559)" d="m0 0 9 4v2l4-1 13 11h2v2l4 1 3 3v4l6 2v2l5 2 9 4 8 3 12 5 9 6-2 1-19-7-16-7-16-8-10-7-14-11-7-6-2-1v-2h2z" fill="#F9F8F8"/>
<path transform="translate(884,1267)" d="m0 0 10 2 3 3 1-1-2-2 5 1 12 7 17 13 8 7-1 3v1l-2 3-5-2-9-6v-2l-4-2-11-8-3-1-4-4-8-5-5-3-3-3z" fill="#FAFAFA"/>
<path transform="translate(870,1085)" d="m0 0h384l16 1-4 2-1 1-13-1h-28l-16-1-338-1z" fill="#554F56"/>
<path transform="translate(1438,1594)" d="m0 0 9 3v2l4 1 5 3 7 4v2l5 1 11 7 20 10 8 3 9 4 5 3 10 3 13 5 8 1 6 3v1l-9-1-26-8-28-11-20-10-10-6-9-5-14-9-4-3z" fill="#F7F6F6"/>
<path transform="translate(1508,1412)" d="m0 0 4 3 1 7v12l-4 10-10 9-5 2-1 2-11 1-6 2-7-1-5-3v-4l18 1 11-4 3-1v-2l5-5 1-2h2l3-11v-15z" fill="#F9F8F8"/>
<path transform="translate(936,1452)" d="m0 0 1 3v3l-2 7-3 3v3l-1 5-2 3-1 6-5 10-2 3-4 7-5 3-1 4h-3l-4 4v3h-8l6-7 6-8h2l2-5 4-7h2l2-6 6-14 5-17z" fill="#F7F6F5"/>
<path transform="translate(1288,712)" d="m0 0h7l18 4 3 2-7-1-20-4v116l-1 17-5 31-3 12 4 1h-5l1-9 4-29 2-25 1-112z" fill="#5D555C"/>
<path transform="translate(1914,1561)" d="m0 0h5l3 4-11 12-15 15-8 7-13 11-6 4-2 3-2-6 4-4 4-1 4-4 8-7 7-8 5-4h2l2-4h2l2-4h2v-2h2v-2h2l2-7z" fill="#E4E3E5"/>
<path transform="translate(1835,1214)" d="m0 0 6 4v2h2l6 11v2h2l6 12v2h2l6 10v2h2l3 7 8 12 3 6v3h2l2 9h-2l-12-20-14-23-12-20-10-16z" fill="#F8F7F6"/>
<path transform="translate(885,1329)" d="m0 0h3v2l5 2 10 10 8 7 4 6 3 5 5 7 3 7 6 12-2 7h-2l-8-19-6-10-9-13-7-8-7-6v-4l-4-2z" fill="#F7F7F7"/>
<path transform="translate(1893,1332)" d="m0 0 2 4-4 8-3 5-2 5h-2l-2 7-4 4-1 4-3 4-5 9-3 3 2 2-5 5-2 4h-2l-1 5-6 10-2 2 1 2-6 9-4 1 1-4 13-23 10-17 4-8 6-9 13-23z" fill="#F8F7F6"/>
<path transform="translate(1097,716)" d="m0 0 2 2 4 16 1 9v79l-3 17-4 12-1-3 3-11 1-7v-99l-3-12z" fill="#5C555C"/>
<path transform="translate(1353,1646)" d="m0 0 29 1v1h-26l-1 127h25v1h-27z" fill="#77A7BA"/>
<path transform="translate(780,1622)" d="m0 0 3 1 2 5-1 3h2l2 16 2 5 4 2 11 1 5 2 7 1v1h-36l-1-27-1-9z" fill="#FCFCFC"/>
<path transform="translate(1241,1215)" d="m0 0h1l-1 9-5 27-3 24-1 14v45l2 24 2 14v7l-3 8-1-3 1-3v-12l-2-10-2-31v-33l3-34 5-29z" fill="#4A454A"/>
<path transform="translate(627,1290)" d="m0 0 5 2 10 6v4l-17 1-1 6-5 3-5 6-2-1 2-7h2l1-5 6-9z" fill="#F5F5F5"/>
<path transform="translate(730,1265)" d="m0 0 4 1-6 3h-2v2l-6 1v3l3 1-4 1-3-1-1 4h-2l-2 4-3 1h-2l-2 3-5 5h-2l-1 3-9 6-2-4 8-9 10-8 11-7z" fill="#F8F7F7"/>
<path transform="translate(942,712)" d="m0 0h71v2l8 1-2 2-11-1h-15l-25-1h-24l-2-1z" fill="#72B9D0"/>
<path transform="translate(607,712)" d="m0 0h71l9 3-3 2-49-2h-18l-10-1z" fill="#72B5CB"/>
<path transform="translate(1006,1509)" d="m0 0 5 1 14 8-2 6-5 8-5-4-3-8-4-7z" fill="#F8F8F7"/>
<path transform="translate(1364,1101)" d="m0 0 1 4-3 3h-2l-1 4h-2l-1 4-2 1v3h-2l-2 5-3 4 1 2-5 5-4 6-3 5-4 2 2-6 14-23 11-15z" fill="#F7F6F5"/>
<path transform="translate(194,1932)" d="m0 0 3 4 1 4h-131v-1h122v-2l4-1z" fill="#77E1FE"/>
<path transform="translate(994,1289)" d="m0 0h2l4 8 2 6-2-1v-2l-4-1-1 4-13-1v-2h-3v-2l14-8z" fill="#F7F6F6"/>
<path transform="translate(1864,1386)" d="m0 0 4 1-5 5-2 4h-2l-1 5-6 10-2 2 1 2-6 9-4 1 1-4 13-23 6-10z" fill="#F8F7F6"/>
<path transform="translate(1013,1332)" d="m0 0 5 2 4 1 3 5v3l-11 6-2-1 1-3-1-9z" fill="#F8F7F7"/>
<path transform="translate(1150,590)" d="m0 0 5 2 14 10 9 9 14 19-1 3-6-8-5-5v-2h-2l-2-4-2-1v-2h-2v-2h-2l-4-4-2-4h-2v-2h-2v-2l-4-1v-2l-5-2z" fill="#F2C398"/>
<path transform="translate(916,735)" d="m0 0 2 2-2 11v25l-1 48h-1v-75z" fill="#77E1FE"/>
<path transform="translate(265,1477)" d="m0 0h4l-1 38h-1l-2-21-2-7v-6l-2-1 1-2z" fill="#78E1FE"/>
<path transform="translate(780,1227)" d="m0 0 5 2v9l-5 7-6 3h-2l2-6 2-1 3-8z" fill="#F6F5F5"/>
<path transform="translate(1810,1613)" d="m0 0h2v2l-15 8-24 11-16 6-2-1 10-5 13-5 20-10 2-2 7-1v-2z" fill="#E3DFDF"/>
<path transform="translate(1910,1529)" d="m0 0 2 3v21l-5 1-2-8 2-7v-6z" fill="#E3E1E3"/>
<path transform="translate(894,1520)" d="m0 0 6 1-1 3-6 5-4 1 1 2-5 1-3 1v2l-4-2 5-5z" fill="#F9F8F8"/>
<path transform="translate(1269,1095)" d="m0 0 10 3 2 4-1 1 2 1v3l-6 1-5-4-1-4-2-1z" fill="#554F56"/>
<path transform="translate(259,815)" d="m0 0 2 3 2 9 3 1 1 7 3 1v4l3 1 1 6 4 1v4l4 1 1 4-4-2-6-7-7-11-4-9-3-8z" fill="#F1B380"/>
<path transform="translate(1438,1421)" d="m0 0h2l5 6 5 9-1 3-1-3-5 1-4-5-2-5-1-2z" fill="#F6F5F5"/>
<path transform="translate(838,1634)" d="m0 0h1l1 23 1 2h-18v-1h5v-2l5-3h2l2-5z" fill="#FDFDFD"/>
<path transform="translate(1455,1016)" d="m0 0 2 1-3 2zm-3 3 3 1-1 2-4 1-2 2 2 3-4 1-6 4v-2l-4 2-4 4v-3l5-5h2l1-3z" fill="#EBE9E9"/>
<path transform="translate(1270,1085)" d="m0 0 8 3 10 8 1 7-9 17-2 1 2-8h2l2-6 2-3v-6l-8-7-7-2z" fill="#4A464B"/>
<path transform="translate(1264,1470)" d="m0 0 3 1-2 4-3 2 2 2-4 8-3 7-2-2 1-7 6-14z" fill="#F7F5F5"/>
<path transform="translate(936,1452)" d="m0 0 1 3v3l-2 7-6 5-1-4 3-11z" fill="#F5F4F4"/>
<path transform="translate(274,738)" d="m0 0v3l-4 7h-2l-3 10-3 2-3 8-1-4 5-12 8-12z" fill="#FCBA82"/>
<path transform="translate(941,1301)" d="m0 0 10 3 2 5v2l-10-1v-2l-5-2v-1h5z" fill="#FAF9F9"/>
<path transform="translate(869,1407)" d="m0 0 2 2 3 11 1 6v9l-3 14h-1l1-25-3-14z" fill="#4B464B"/>
<path transform="translate(1562,1422)" d="m0 0 2 2v21h-2l-3-6 1-12z" fill="#F8F7F7"/>
<path transform="translate(836,1308)" d="m0 0 12 2 10 5 5 2 1 2-6-1-10-4-11-3z" fill="#F4F6F7"/>
<path transform="translate(635,1378)" d="m0 0h3l1 7-2 7-3 1-1-9z" fill="#FCFCFC"/>
<path transform="translate(1874,1368)" d="m0 0 1 4-4 7-7 8-2 1 2-5 3-5 2-5z" fill="#F0EEED"/>
<path transform="translate(659,1552)" d="m0 0h8l11 4 1 3-11-3h-14l1-2h4z" fill="#F8F9FA"/>
<path transform="translate(1291,1401)" d="m0 0 4 1-1 7-5 8-2-2 1-7z" fill="#F8F6F6"/>
<path transform="translate(1364,1101)" d="m0 0 1 4-3 3h-2l-1 4h-2l-1 4-5 2 2-5 6-8z" fill="#F9F8F7"/>
<path transform="translate(1580,1654)" d="m0 0h15l1 1 7 1-1 2h-8l-13-2z" fill="#F6F4F3"/>
<path transform="translate(1534,1642)" d="m0 0 10 3 8 1 6 3v1l-9-1-14-4z" fill="#F6F4F3"/>
<path transform="translate(1775,1216)" d="m0 0h1v13l1 9-1-2h-2l-1-2v-14z" fill="#F8F6F5"/>
<path transform="translate(269,840)" d="m0 0 4 1 1 6 4 1v4l4 1 1 4-4-2-6-7-4-6z" fill="#F9B780"/>
<path transform="translate(1334,728)" d="m0 0 4 1 6 3 4 5v2l-5-2-5-3-2-1z" fill="#F3B37F"/>
<path transform="translate(1271,1449)" d="m0 0h2v2l2 1-2 3h-2l-2 9-3 1 1-6z" fill="#F5F3F2"/>
<path transform="translate(686,1416)" d="m0 0 1 4v17h-2l-1-14z" fill="#FDFDFD"/>
<path transform="translate(1822,1317)" d="m0 0h2l5 6-4 2-4-1-1-5z" fill="#FAF9FA"/>
<path transform="translate(683,1298)" d="m0 0 1 2h-2v4l-7 2-1 2-7-1 2-2 10-3v-2z" fill="#F4F2F1"/>
<path transform="translate(1657,1363)" d="m0 0 3 1-2 3-2 8-1 2h-3l-1-3 3-4z" fill="#FBFBFB"/>
<path transform="translate(867,1539)" d="m0 0 3 1-4 3-8 3-6 2-3-1 12-5z" fill="#F7F5F4"/>
<path transform="translate(1457,1678)" d="m0 0 6 2 10 5v1l-8-1-2-2-7-3z" fill="#77D6F2"/>
<path transform="translate(992,1563)" d="m0 0 3 1v7l-6-3-1-4z" fill="#F8F7F7"/>
<path transform="translate(1864,1386)" d="m0 0 4 1-5 5-2 4-4 1 2-5 2-4z" fill="#F9F8F8"/>
<path transform="translate(1560,1650)" d="m0 0h9l7 2v2l-11-1-5-2z" fill="#F5F3F2"/>
<path transform="translate(1858,1396)" d="m0 0 1 4-4 5-4 2 2-5 3-5z" fill="#F6F4F3"/>
<path transform="translate(1508,1230)" d="m0 0 2 4v4l-3 3h-3l3-10z" fill="#F7F5F4"/>
<path transform="translate(1648,1211)" d="m0 0 1 3-6 15-2 1 1-7z" fill="#F6F3F1"/>
<path transform="translate(1522,1638)" d="m0 0 6 1 6 3v2l-11-3z" fill="#F8F7F7"/>
<path transform="translate(836,1308)" d="m0 0 12 2 2 3-9-1-4-1z" fill="#F6F4F3"/>
<path transform="translate(1379,1081)" d="m0 0 3 2-3 1v3l-5 5-2-1 2-5z" fill="#F8F7F6"/>
<path transform="translate(274,738)" d="m0 0v3l-4 7-4 1 2-5 5-5z" fill="#FDBB83"/>
<path transform="translate(293,723)" d="m0 0 2 1-10 7-3 2-3-1 10-7z" fill="#FCB87F"/>
<path transform="translate(772,1611)" d="m0 0 5 5 2 5-1 4-5-9-2-4z" fill="#F0EFEF"/>
<path transform="translate(936,1439)" d="m0 0h3v9h-2l-1 3-1-4v-6z" fill="#FDFDFD"/>
<path transform="translate(1666,1342)" d="m0 0 1 3-2 5-2 6-3 1-1-3 4-6 2-5z" fill="#FDFDFD"/>
<path transform="translate(1841,1426)" d="m0 0h2l-2 4-2 3h-2l-1 3-1-3 3-5z" fill="#F7F6F5"/>
<path transform="translate(1670,1322)" d="m0 0 2 4-3 7-3 2 3-10z" fill="#E3DFDF"/>
<path transform="translate(730,1265)" d="m0 0 4 1-6 3h-2v2l-7 1 5-4z" fill="#F6F3F2"/>
<path transform="translate(1461,1200)" d="m0 0 2 1-3 2zm-4 3 3 1-10 10 2-5z" fill="#433D42"/>
<path transform="translate(1655,1364)" d="m0 0 1 3-3 6-3 2 3-10z" fill="#E3DFE0"/>
<path transform="translate(1663,1344)" d="m0 0 1 4-4 6-2-1 3-8z" fill="#E3DFE0"/>
<path transform="translate(1284,1107)" d="m0 0 1 4-6 10-1-2 2-6h2z" fill="#4D484D"/>
</svg>
